<svg width="24" height="24" viewBox="0 0 24 24" fill="none" xmlns="http://www.w3.org/2000/svg">
  <path d="M12 4.5C10.6193 4.5 9.5 5.61929 9.5 7C9.5 8.38071 10.6193 9.5 12 9.5C13.3807 9.5 14.5 8.38071 14.5 7C14.5 5.61929 13.3807 4.5 12 4.5Z" stroke="currentColor" stroke-width="1.5" stroke-linecap="round" stroke-linejoin="round"/>
  <path d="M3.5 9.5C4.88071 9.5 6 8.38071 6 7C6 5.61929 4.88071 4.5 3.5 4.5C2.11929 4.5 1 5.61929 1 7C1 8.38071 2.11929 9.5 3.5 9.5Z" stroke="currentColor" stroke-width="1.5" stroke-linecap="round" stroke-linejoin="round"/>
  <path d="M20.5 9.5C21.8807 9.5 23 8.38071 23 7C23 5.61929 21.8807 4.5 20.5 4.5C19.1193 4.5 18 5.61929 18 7C18 8.38071 19.1193 9.5 20.5 9.5Z" stroke="currentColor" stroke-width="1.5" stroke-linecap="round" stroke-linejoin="round"/>
  <path d="M14.326 15.3807C13.6542 15.9314 12.8338 16.233 12 16.233C11.1662 16.233 10.3458 15.9314 9.674 15.3807C7.94504 15.1401 6.35473 14.1817 5.27646 12.71C4.19819 11.2384 3.71121 9.38361 3.928 7.539" stroke="currentColor" stroke-width="1.5" stroke-linecap="round" stroke-linejoin="round"/>
  <path d="M20.072 7.539C20.2888 9.38361 19.8018 11.2384 18.7235 12.71C17.6453 14.1817 16.055 15.1401 14.326 15.3807" stroke="currentColor" stroke-width="1.5" stroke-linecap="round" stroke-linejoin="round"/>
  <path d="M7.5 19.5C9.15685 19.5 10.5 18.1569 10.5 16.5C10.5 14.8431 9.15685 13.5 7.5 13.5C5.84315 13.5 4.5 14.8431 4.5 16.5C4.5 18.1569 5.84315 19.5 7.5 19.5Z" stroke="currentColor" stroke-width="1.5" stroke-linecap="round" stroke-linejoin="round"/>
  <path d="M16.5 19.5C18.1569 19.5 19.5 18.1569 19.5 16.5C19.5 14.8431 18.1569 13.5 16.5 13.5C14.8431 13.5 13.5 14.8431 13.5 16.5C13.5 18.1569 14.8431 19.5 16.5 19.5Z" stroke="currentColor" stroke-width="1.5" stroke-linecap="round" stroke-linejoin="round"/>
</svg>
