<?xml version="1.0" encoding="UTF-8"?><svg xmlns="http://www.w3.org/2000/svg" viewBox="0 0 24 24" fill="none" stroke="currentColor" stroke-width="0.5" stroke-linecap="round" stroke-linejoin="round"><path d="M17.9 5c.1 0 .2 0 .3.1.2.1.3.2.4.4v13c0 .2-.1.3-.4.4-.1.1-.2.1-.3.1-.3 0-.6-.1-.8-.4l-5.9-5.6L5.3 18.6c-.2.2-.5.4-.8.4-.1 0-.2 0-.3-.1-.2-.1-.3-.2-.3-.4v-13c0-.2.1-.3.3-.4.1-.1.2-.1.3-.1h13.4z" fill="currentColor"/><path d="M13.1 9.2l-3.5-6.4C9.4 2.3 9 2 8.5 2c-.4 0-.8.2-1 .5L2.4 9.2c-.3.5-.3 1.1 0 1.6.3.5.8.8 1.3.8h8c.5 0 1-.3 1.3-.8.4-.5.4-1.1.1-1.6zM22.6 13.2L17.5 3.7c-.2-.3-.6-.5-1-.5s-.8.2-1 .5l-5.1 9.5c-.3.5-.3 1.1 0 1.6.3.5.8.8 1.3.8h8.7c.5 0 1-.3 1.3-.8.2-.5.2-1.1-.1-1.6z" fill="currentColor"/></svg>
